#!OML:ASF F:\VICON\USERDATA\INSTALL\rory3\rory3.ASF
:FULLY-SPECIFIED
:DEGREES
122
root -2.88213 14.6458 9.66489 257.233 10.3752 -198.835
lowerback 33.798 -1.16235 21.3441
upperback 3.07575 5.57195 13.6734
thorax -12.7548 0.752285 2.25992
lowerneck -34.1052 -9.31968 -11.3188
upperneck -2.12343 -7.24042 8.98364
head 4.99739 -2.20662 3.84897
rclavicle -1.47896e-013 -1.95604e-013
rhumerus 70.6195 -11.8052 -46.9638
rradius 34.1886
rwrist 14.4784
rhand -31.694 -82.046
rfingers 7.12502
rthumb -4.95325 111.968
lclavicle -1.47896e-013 -1.95604e-013
lhumerus 73.0944 29.4405 6.3302
lradius 31.3659
lwrist -11.5296
lhand -44.0929 -80.8452
lfingers 7.12502
lthumb -16.9106 -51.5614
rfemur -107.301 -8.74937 2.98992
rtibia 67.8025
rfoot -30.2563 -19.3232
rtoes -2.08443
lfemur -27.8002 -5.52551 -28.8439
ltibia 27.5951
lfoot -11.4673 8.89699
ltoes -31.1838
123
root -2.8534 14.6515 9.4504 258.447 11.027 -199.465
lowerback 33.4489 -1.25781 21.9101
upperback 2.64058 5.70492 14.0136
thorax -13.0915 0.755538 2.3531
lowerneck -33.7284 -9.03216 -11.7115
upperneck -2.15306 -6.78145 8.92483
head 4.90998 -2.01461 3.95769
rclavicle -6.83819e-014 -5.96354e-014
rhumerus 71.0418 -10.9088 -46.6031
rradius 34.3541
rwrist 15.5124
rhand -28.7863 -84.219
rfingers 7.12502
rthumb -2.14533 114.188
lclavicle -6.83819e-014 -5.96354e-014
lhumerus 74.0386 29.0702 7.26367
lradius 30.8989
lwrist -12.851
lhand -45.0134 -79.1677
lfingers 7.12502
lthumb -17.7965 -49.9621
rfemur -107.273 -9.48367 2.13603
rtibia 67.2499
rfoot -29.5792 -19.905
rtoes -4.63434
lfemur -25.195 -5.51591 -28.9844
ltibia 27.4478
lfoot -9.66858 7.01192
ltoes -25.6804
124
root -2.8199 14.6716 9.23022 260.141 11.4634 -200.114
lowerback 32.4636 -1.08436 22.2266
upperback 2.2105 5.91114 14.6273
thorax -13.3088 0.81492 2.7006
lowerneck -33.5019 -8.53185 -11.4872
upperneck -2.09799 -6.21662 8.3148
head 4.81185 -1.81399 3.79664
rclavicle 4.45278e-014 1.11319e-013
rhumerus 71.0824 -9.90906 -45.9053
rradius 35.0521
rwrist 17.9251
rhand -29.9082 -86.2028
rfingers 7.12502
rthumb -3.22877 116.158
lclavicle 4.45278e-014 1.11319e-013
lhumerus 74.6877 28.7173 7.98232
lradius 30.7359
lwrist -13.8667
lhand -45.842 -77.9384
lfingers 7.12502
lthumb -18.5937 -48.807
rfemur -107.754 -10.4081 1.7263
rtibia 66.6211
rfoot -28.4612 -20.7835
rtoes -7.6758
lfemur -23.0308 -5.80673 -28.7083
ltibia 27.2666
lfoot -8.51975 5.82806
ltoes -24.953
125
root -2.79551 14.6368 9.04306 261.524 12.464 -200.821
lowerback 31.8445 -1.01084 22.3731
upperback 1.82305 6.02167 14.9937
thorax -13.5432 0.851163 3.00728
lowerneck -33.2452 -8.18442 -11.5802
upperneck -2.13406 -5.72207 7.76657
head 4.70049 -1.63337 3.69473
rclavicle 1.74931e-014 2.52059e-013
rhumerus 71.371 -9.02813 -45.0626
rradius 35.9986
rwrist 20.5529
rhand -30.033 -88.5721
rfingers 7.12502
rthumb -3.34936 118.526
lclavicle 1.74931e-014 2.52059e-013
lhumerus 73.8876 29.1876 7.77176
lradius 31.2544
lwrist -13.2466
lhand -46.568 -76.5887
lfingers 7.12502
lthumb -19.2919 -47.5256
rfemur -107.923 -11.3203 0.459086
rtibia 66.0985
rfoot -28.6431 -20.1494
rtoes -6.94734
lfemur -20.4024 -6.21731 -28.9337
ltibia 27.4572
lfoot -7.47178 5.64593
ltoes -27.0959
126
root -2.75178 14.6511 8.82615 263.342 13.7379 -201.726
lowerback 31.023 -1.1136 22.6218
upperback 1.15317 6.04461 14.7665
thorax -13.9407 0.846314 2.63768
lowerneck -32.5754 -7.89884 -11.5797
upperneck -2.32591 -5.47637 7.76049
head 4.53925 -1.54665 3.72942
rclavicle -1.35174e-013 -6.75868e-014
rhumerus 71.4608 -8.37294 -45.1305
rradius 36.8958
rwrist 21.9706
rhand -29.1232 91.1787
rfingers 7.12502
rthumb -2.4707 121.144
lclavicle -1.35174e-013 -6.75868e-014
lhumerus 76.0501 30.4352 11.3749
lradius 30.6849
lwrist -11.3511
lhand -37.1979 95.3469
lfingers 7.12502
lthumb -10.2656 -65.6174
rfemur -109.025 -12.4549 -1.20532
rtibia 65.5268
rfoot -27.2356 -21.1297
rtoes -9.20483
lfemur -18.5574 -6.61215 -29.3868
ltibia 27.9979
lfoot -6.1267 5.32029
ltoes -27.7441
127
root -2.70412 14.669 8.61708 265.036 14.6026 -202.313
lowerback 30.3304 -1.07962 22.9357
upperback 0.617052 6.20447 14.7147
thorax -14.2265 0.885122 2.38885
lowerneck -31.8679 -7.47483 -11.1798
upperneck -2.62742 -5.18154 7.58624
head 4.31799 -1.44749 3.65255
rclavicle 2.00375e-013 3.65764e-014
rhumerus 71.4696 -7.85476 -44.8219
rradius 37.9447
rwrist 21.9386
rhand -29.5591 94.9873
rfingers 7.12502
rthumb -2.8917 124.947
lclavicle 2.00375e-013 3.65764e-014
lhumerus 74.2199 30.1689 8.12424
lradius 30.7893
lwrist -13.4952
lhand -48.1945 -80.5224
lfingers 7.12502
lthumb -20.8553 -51.6234
rfemur -109.168 -13.3288 -2.12816
rtibia 64.5696
rfoot -26.8403 -20.9156
rtoes -8.2053
lfemur -16.9204 -6.54515 -29.3116
ltibia 29.1942
lfoot -4.5926 4.95769
ltoes -26.5271
128
root -2.65353 14.6874 8.39894 266.309 15.1377 -203.085
lowerback 29.9296 -1.02592 23.3527
upperback 0.232868 6.41132 15.1924
thorax -14.5135 0.92719 2.68476
lowerneck -31.4353 -7.06814 -10.9544
upperneck -3.00461 -4.73203 6.98723
head 4.07688 -1.27913 3.47885
rclavicle 6.20208e-014 3.65764e-014
rhumerus 71.781 -7.34039 -43.3278
rradius 39.1479
rwrist 21.5107
rhand -31.0709 99.3273
rfingers 7.12502
rthumb -4.35158 129.263
lclavicle 6.20208e-014 3.65764e-014
lhumerus 74.943 30.8331 9.75769
lradius 30.6037
lwrist -12.3438
lhand -46.6504 -77.8452
lfingers 7.12502
lthumb -19.3712 -48.79
rfemur -108.416 -14.1333 -3.01069
rtibia 63.3651
rfoot -26.3499 -20.9211
rtoes -6.94634
lfemur -15.0686 -5.55893 -28.8055
ltibia 30.8331
lfoot -3.75469 3.9368
ltoes -28.6461
129
root -2.5985 14.7076 8.18924 267.834 15.5032 -203.894
lowerback 29.2738 -0.859491 23.8823
upperback -0.182653 6.69542 15.8614
thorax -14.7276 0.997172 3.12768
lowerneck -30.715 -6.71614 -11.0763
upperneck -3.82017 -4.22992 6.33853
head 3.66359 -1.06497 3.35189
rclavicle -9.85972e-014 -4.85035e-014
rhumerus 72.237 -6.84397 -41.6233
rradius 40.3806
rwrist 21.6344
rhand -34.07 104.529
rfingers 7.12502
rthumb -7.24718 134.385
lclavicle -9.85972e-014 -4.85035e-014
lhumerus 75.5674 31.5554 11.5102
lradius 31.1231
lwrist -9.60677
lhand -45.2495 -70.0732
lfingers 7.12502
lthumb -18.0237 -40.8883
rfemur -107.911 -15.0545 -3.72609
rtibia 61.9432
rfoot -25.7912 -21.1561
rtoes -7.84333
lfemur -13.7672 -5.15094 -27.9102
ltibia 33.1434
lfoot -3.19001 4.29183
ltoes -26.0135
130
root -2.53269 14.7466 7.96683 269.521 16.0984 -204.744
lowerback 28.5899 -0.75529 24.3477
upperback -0.764491 6.95934 16.1885
thorax -15.0961 1.05154 3.22847
lowerneck -29.6098 -6.23398 -11.0179
upperneck -4.79084 -3.71493 5.95205
head 3.16674 -0.831675 3.28598
rclavicle -1.25632e-013 1.59028e-015
rhumerus 72.2872 -6.43894 -40.7849
rradius 41.9105
rwrist 22.3562
rhand -37.655 113.909
rfingers 7.12502
rthumb -10.7065 143.616
lclavicle -1.25632e-013 1.59028e-015
lhumerus 76.4227 32.5418 13.6868
lradius 29.0363
lwrist -12.794
lhand -45.7858 -81.7754
lfingers 7.12502
lthumb -18.5397 -52.6389
rfemur -107.307 -16.0732 -4.73176
rtibia 60.2724
rfoot -25.6393 -21.3622
rtoes -9.76934
lfemur -12.8733 -4.43974 -27.0527
ltibia 35.7356
lfoot -3.306 4.17496
ltoes -28.9084
131
root -2.46158 14.7905 7.74037 271.189 17.0158 -205.742
lowerback 27.765 -0.684642 24.6079
upperback -1.40775 7.11065 16.366
thorax -15.4927 1.07758 3.29032
lowerneck -28.5411 -5.90953 -11.602
upperneck -5.38409 -3.26663 6.29499
head 2.83276 -0.59694 3.54596
rclavicle 7.95139e-016 5.725e-014
rhumerus 72.0655 -6.06256 -40.3232
rradius 43.7622
rwrist 23.3123
rhand -39.1306 116.465
rfingers 7.12502
rthumb -12.1296 146.093
lclavicle 7.95139e-016 5.725e-014
lhumerus 76.4112 33.1762 14.0709
lradius 28.4719
lwrist -12.4067
lhand -45.9415 -79.871
lfingers 7.12502
lthumb -18.6894 -50.7488
rfemur -106.548 -17.2442 -6.2402
rtibia 58.4674
rfoot -25.3207 -21.8111
rtoes -10.6197
lfemur -12.1386 -3.80425 -26.377
ltibia 38.4822
lfoot -2.68135 4.00244
ltoes -29.5973
132
root -2.38957 14.8451 7.49577 272.665 17.7801 -206.814
lowerback 26.9187 -0.532385 25.0072
upperback -1.95851 7.31082 16.9847
thorax -15.8084 1.12167 3.79168
lowerneck -27.4855 -6.10864 -14.0831
upperneck -5.57261 -2.98981 7.59212
head 2.71594 -0.387632 4.38799
rclavicle -1.09729e-013 -8.5875e-014
rhumerus 72.3987 -5.51837 -38.7291
rradius 45.5801
rwrist 22.8742
rhand -39.8528 116.834
rfingers 7.12502
rthumb -12.8259 146.42
lclavicle -1.09729e-013 -8.5875e-014
lhumerus 74.1498 33.6314 12.1535
lradius 30.3507
lwrist -7.37594
lhand -45.8859 -64.3877
lfingers 7.12502
lthumb -18.636 -35.2603
rfemur -105.429 -18.371 -7.73338
rtibia 56.5002
rfoot -24.6286 -22.5945
rtoes -11.3716
lfemur -11.2544 -3.14696 -25.4045
ltibia 41.1491
lfoot -1.7208 3.68597
ltoes -27.7998
133
root -2.31254 14.9136 7.24147 274.155 18.4976 -207.799
lowerback 26.2074 -0.190488 25.2922
upperback -2.46212 7.70352 18.0143
thorax -16.2171 1.25628 4.76783
lowerneck -26.222 -6.47673 -17.2825
upperneck -5.70791 -2.79813 8.64391
head 2.55047 -0.232419 5.25703
rclavicle 8.66701e-014 -1.70955e-014
rhumerus 73.3552 -4.89316 -35.6311
rradius 46.4815
rwrist 22.1047
rhand -40.7111 116.464
rfingers 7.12502
rthumb -13.6532 145.996
lclavicle 8.66701e-014 -1.70955e-014
lhumerus 72.0728 34.4621 12.4846
lradius 30.6216
lwrist -6.90631
lhand -46.3457 -62.0164
lfingers 7.12502
lthumb -19.0781 -32.9321
rfemur -104.187 -19.3658 -9.27196
rtibia 54.3478
rfoot -23.8166 -23.5314
rtoes -12.1634
lfemur -10.5106 -2.45427 -24.2072
ltibia 43.9871
lfoot -0.692384 3.32358
ltoes -27.3621
134
root -2.23208 14.9929 6.97872 275.808 19.3595 -208.698
lowerback 25.4623 -0.448348 25.8538
upperback -3.3469 7.6949 17.0642
thorax -16.7089 1.14044 3.47378
lowerneck -24.5725 -4.93229 -12.7719
upperneck -6.37492 -2.36114 6.69688
head 2.0069 -0.242744 3.957
rclavicle 9.14409e-014 1.11319e-014
rhumerus 71.0416 -5.05485 -35.1507
rradius 48.472
rwrist 21.0603
rhand -40.4311 115.146
rfingers 7.12502
rthumb -13.3833 144.697
lclavicle 9.14409e-014 1.11319e-014
lhumerus 75.4254 35.0183 15.8184
lradius 28.5578
lwrist -10.6844
lhand -46.2478 -70.0501
lfingers 7.12502
lthumb -18.9841 -40.9565
rfemur -102.872 -20.3522 -11.0786
rtibia 51.9396
rfoot -23.1607 -24.49
rtoes -12.1782
lfemur -9.91041 -1.90431 -23.0333
ltibia 46.7548
lfoot 0.0495319 2.9273
ltoes -27.1001
135
root -2.15433 15.0796 6.70686 277.433 20.363 -209.599
lowerback 24.4648 -0.419427 26.3758
upperback -3.84701 7.7097 16.9912
thorax -16.7389 1.10387 3.19446
lowerneck -22.5877 -4.48331 -12.144
upperneck -7.28662 -2.25763 6.52188
head 1.4521 -0.253199 3.81815
rclavicle 3.81667e-014 1.54654e-013
rhumerus 71.1289 -5.09119 -33.0532
rradius 49.159
rwrist 20.1968
rhand -39.1776 113.693
rfingers 7.12502
rthumb -12.1749 143.319
lclavicle 3.81667e-014 1.54654e-013
lhumerus 72.9641 35.783 14.0626
lradius 30.4829
lwrist -7.51187
lhand -44.7477 -65.9289
lfingers 7.12502
lthumb -17.5409 -36.7003
rfemur -101.124 -21.3778 -13.1797
rtibia 49.1524
rfoot -22.5155 -25.4316
rtoes -12.3142
lfemur -9.51565 -1.43561 -21.9365
ltibia 49.8088
lfoot 0.10115 2.48488
ltoes -25.8388
136
root -2.07575 15.1747 6.44241 278.988 21.7852 -210.507
lowerback 23.3693 -0.0958431 26.4927
upperback -4.26877 7.88995 17.0294
thorax -16.6677 1.17968 3.15562
lowerneck -21.662 -4.35901 -12.4021
upperneck -7.52683 -2.18827 6.17266
head 1.24117 -0.251558 3.75664
rclavicle -1.30403e-013 7.35503e-014
rhumerus 71.2958 -5.51291 -30.6902
rradius 49.5072
rwrist 20.0185
rhand -37.8462 111.445
rfingers 7.12502
rthumb -10.8909 141.143
lclavicle -1.30403e-013 7.35503e-014
lhumerus 73.7372 36.6596 16.5341
lradius 29.9236
lwrist -7.30745
lhand -42.6624 -63.9161
lfingers 7.12502
lthumb -15.5332 -34.52
rfemur -98.9147 -22.4876 -15.9434
rtibia 45.9589
rfoot -21.845 -26.369
rtoes -12.784
lfemur -9.35649 -0.861311 -21.2397
ltibia 52.9854
lfoot 0.0696091 1.8854
ltoes -29.0232
